<mxfile host="app.diagrams.net" modified="2023-08-28T02:39:17.442Z" agent="Mozilla/5.0 (Macintosh; Intel Mac OS X 10_15_7) AppleWebKit/537.36 (KHTML, like Gecko) Chrome/116.0.0.0 Safari/537.36" version="21.6.9" etag="HpCdLqqp-4vjsct6-nyx" type="github">
  <diagram name="Page-1" id="ZrmQBg6m9iESgX0MAC93">
    <mxGraphModel>
      <root>
        <mxCell id="0" />
        <mxCell id="1" parent="0" />
      </root>
    </mxGraphModel>
  </diagram>
</mxfile>
